<?xml version="1.0" standalone="no"?>
<!DOCTYPE svg PUBLIC "-//W3C//DTD SVG 20010904//EN"
 "http://www.w3.org/TR/2001/REC-SVG-20010904/DTD/svg10.dtd">
<svg version="1.0" xmlns="http://www.w3.org/2000/svg"
 width="512.000000pt" height="512.000000pt" viewBox="0 0 512.000000 512.000000"
 preserveAspectRatio="xMidYMid meet">

<g transform="translate(0.000000,512.000000) scale(0.100000,-0.100000)"
fill="#000000" stroke="none">
<path d="M2580 4255 c-87 -19 -184 -52 -245 -83 -27 -13 -221 -127 -430 -252
-209 -125 -423 -253 -476 -285 l-96 -57 -311 2 -312 1 0 -1371 0 -1370 250 0
250 0 0 748 c0 411 -4 817 -9 902 -18 281 -18 284 -1 288 10 2 191 -290 588
-952 314 -525 575 -961 578 -970 5 -14 38 -16 275 -16 165 0 269 4 269 10 0 5
242 154 538 331 295 177 562 341 593 365 255 196 404 543 360 842 -29 197
-121 375 -260 504 -153 142 -376 212 -594 188 -49 -6 -92 -8 -95 -6 -2 3 16
47 42 98 51 105 72 177 82 281 25 277 -162 593 -431 725 -125 62 -218 84 -365
88 -93 3 -155 -1 -200 -11z m275 -357 c70 -18 178 -81 236 -138 164 -163 182
-426 43 -632 -25 -36 -65 -82 -88 -102 -24 -19 -198 -128 -387 -241 -319 -191
-345 -205 -357 -188 -23 31 -502 835 -502 842 1 9 670 408 734 437 92 42 210
50 321 22z m770 -1130 c131 -28 274 -134 340 -252 115 -206 78 -473 -88 -641
-51 -52 -127 -101 -442 -289 -247 -148 -384 -225 -392 -219 -21 13 -544 896
-539 908 7 19 736 450 801 474 107 40 198 45 320 19z"/>
</g>
</svg>
